# xmcd
#
# Track frame offsets:
#	150
#	15313
#	29941
#	42429
#	60074
#	74079
#	89387
#	99865
#	116997
#	138703
#	155327
#	179906
#	196048
#	208572
#	226166
#	242869
#	259674
#	280287
#	301002
#	317683
#	330697
#
# Disc length: 4618 seconds
#
# Revision: 0
# Processed by: cddbd v1.5.2PL0 Copyright (c) Steve Scherf et al.
# Submitted via: audiograbber 1.83.01
#
DISCID=2c120815
DTITLE=Willie Nelson - One Hell Of A Ride - CD4
DYEAR=2008
DGENRE=Country
TTITLE0=Write Your Own Songs
TTITLE1=Heart Of Gold
TTITLE2=I'm Movin' On (with Hank Snow)
TTITLE3=Seven Spanish Angels (with Ray Charles)
TTITLE4=Highwayman (with Waylon Jennings, Johnny Cash and Kris Kristofferson)
TTITLE5=Living In The Promiseland
TTITLE6=What A Wonderful World
TTITLE7=Country Willie
TTITLE8=Graceland
TTITLE9=Valentine
TTITLE10=What Was It You Wanted
TTITLE11=Still Is Still Moving To Me
TTITLE12=Too Sick To Pray
TTITLE13=Everywhere I Go
TTITLE14=My Own Peculiar Way
TTITLE15=Nuages
TTITLE16=Rainbow Connection
TTITLE17=Mendocino County Line (with Lee Ann Womack)
TTITLE18=The Harder They Come
TTITLE19=Bubbles In My Beer
TTITLE20=When I've Sung My Last Hillbilly Song
EXTD=
EXTT0=
EXTT1=
EXTT2=
EXTT3=
EXTT4=
EXTT5=
EXTT6=
EXTT7=
EXTT8=
EXTT9=
EXTT10=
EXTT11=
EXTT12=
EXTT13=
EXTT14=
EXTT15=
EXTT16=
EXTT17=
EXTT18=
EXTT19=
EXTT20=
PLAYORDER=
